<svg id="Groupe_40" data-name="Groupe 40" xmlns="http://www.w3.org/2000/svg" width="14.378" height="16.146" viewBox="0 0 14.378 16.146">
  <path id="Tracé_330" data-name="Tracé 330" d="M41.243,1.176a4.027,4.027,0,0,0-5.688,0L29.566,7.165a.473.473,0,1,0,.669.669l5.989-5.989a3.15,3.15,0,0,1,4.35,0,3.079,3.079,0,0,1,0,4.349l-8.363,8.457a1.938,1.938,0,0,1-2.677,0,1.894,1.894,0,0,1,0-2.676l8.028-8.123a.727.727,0,0,1,1,0,.711.711,0,0,1,0,1l-7.693,7.788a.527.527,0,0,0,0,.669.473.473,0,0,0,.669,0l7.693-7.788a1.658,1.658,0,0,0,0-2.342,1.7,1.7,0,0,0-2.342,0l-8.028,8.123a2.858,2.858,0,0,0,0,4.014,2.854,2.854,0,0,0,4.015,0l8.363-8.457A4.026,4.026,0,0,0,41.243,1.176Z" transform="translate(-28.042 0)" fill="#768088"/>
</svg>
